<svg width="150" height="150" viewBox="0 0 150 150" fill="none" xmlns="http://www.w3.org/2000/svg">
<rect width="150" height="150" fill="#E68A00"/>
<circle cx="77" cy="75" r="50" fill="#4D4B4D"/>
<path d="M57.9864 63.1393C60.7944 63.143 62.917 64.2618 64.3541 66.4956C65.7911 68.7295 66.5075 71.5385 66.5031 74.9224C66.4987 78.3064 65.6547 81.3893 63.971 84.1712C62.3114 86.929 60.3896 88.3065 58.2056 88.3037C56.6696 88.3017 55.5428 87.4362 54.825 85.7072C54.1073 83.9783 53.6425 81.5177 53.4306 78.3254C52.4208 79.7401 51.2667 81.3466 49.9684 83.1449C47.4679 86.5977 45.7136 88.3234 44.7056 88.3221C44.3216 88.3216 43.878 88.009 43.3748 87.3843C42.8716 86.7597 42.6207 85.9793 42.6219 85.0433C42.6231 84.0833 42.951 81.1198 43.6055 76.1526C44.26 71.1615 44.589 67.2739 44.5926 64.4899C44.5938 63.6019 44.8584 63.1582 45.3864 63.1589C45.9144 63.1596 46.526 63.4724 47.2212 64.0973C47.9404 64.7223 48.2996 65.2987 48.2989 65.8267C48.2983 66.3307 47.887 68.8622 47.065 73.4211C46.2671 77.9801 45.7704 81.5554 45.575 84.1472C47.0423 81.6771 48.6892 79.3992 50.5159 77.3136C52.3667 75.204 53.6881 74.1498 54.4801 74.1508C55.2961 74.1518 55.8577 75.9526 56.165 79.553C56.2833 80.8971 56.5097 82.1334 56.8442 83.2619C57.2027 84.3903 57.682 84.955 58.282 84.9557C59.626 84.9575 60.7914 83.879 61.7782 81.7203C62.7891 79.5376 63.2962 77.1263 63.2996 74.4863C63.3035 71.5583 62.6584 69.3014 61.3645 67.7157C60.6936 66.8749 59.9501 66.4539 59.1341 66.4528C58.3421 66.4518 57.6585 66.1749 57.0832 65.6222C56.5319 65.0694 56.2565 64.5891 56.2571 64.1811C56.258 63.4851 56.8344 63.1378 57.9864 63.1393ZM75.6885 77.0584C74.3871 81.1607 73.7359 83.6439 73.7348 84.5079C73.7344 84.7959 73.8181 85.036 73.9858 85.2282C74.1776 85.3965 74.4175 85.4808 74.7055 85.4811C77.4655 85.4847 80.5141 85.0447 83.8512 84.1611C84.9316 83.8745 85.5558 83.7313 85.7238 83.7315C86.0838 83.732 86.2634 83.9842 86.2628 84.4882C86.2617 85.3522 84.9285 86.2385 82.2633 87.147C79.6221 88.0556 77.0655 88.5082 74.5935 88.505C73.4895 88.5036 72.518 88.1783 71.6788 87.5292C70.8637 86.8801 70.4567 86.0636 70.458 85.0796C70.4593 84.0956 70.8095 82.4161 71.5086 80.041C72.2317 77.6659 72.955 75.1349 73.6785 72.4478C74.402 69.7607 74.7649 67.4932 74.7673 65.6452C74.7677 65.3812 74.816 65.1053 74.9124 64.8174C75.3216 63.9299 77.9381 63.4893 82.7621 63.4956C87.5861 63.5019 89.9977 63.853 89.9968 64.549C89.9961 65.029 89.4797 65.3524 88.4475 65.519C87.5833 65.6859 86.4311 65.8404 84.9909 65.9825C83.5747 66.1007 82.5786 66.1954 82.0025 66.2666C81.4265 66.3139 80.0342 66.5281 77.8257 66.9092L77.8255 67.0172C77.8234 68.6492 77.3762 71.1086 76.4839 74.3955C76.6279 74.4196 77.1079 74.4323 77.9239 74.4333C78.7639 74.4344 79.88 74.3759 81.2721 74.2577C82.6643 74.1395 83.7083 74.0809 84.4043 74.0818C85.1243 74.0827 85.4841 74.2512 85.4837 74.5872C85.4826 75.4272 84.4978 76.0499 82.5293 76.4553C80.5607 76.8608 78.2805 77.0618 75.6885 77.0584ZM109.955 79.9471C109.953 81.3631 109.22 82.7421 107.754 84.0842C106.288 85.4023 104.391 86.4678 102.062 87.2808C99.7327 88.0697 97.3562 88.4627 94.9322 88.4595C93.5162 88.4576 92.2447 88.06 91.1178 87.2665C90.0148 86.4731 89.4638 85.7404 89.4646 85.0684C89.4655 84.3724 89.67 84.0246 90.078 84.0252C90.174 84.0253 90.6416 84.2899 91.481 84.819C92.3443 85.3241 93.244 85.5893 94.1799 85.6145C93.8441 85.4461 93.5205 85.1337 93.2091 84.6772C92.9217 84.2209 92.7783 83.7887 92.7788 83.3807C92.7794 82.9727 93.0688 81.8331 93.6473 79.9618C95.4306 74.3241 96.3483 69.9933 96.4002 66.9694L96.1122 66.969C95.6802 66.9684 95.2366 66.7039 94.7812 66.1753C94.326 65.6227 94.0985 65.1784 94.099 64.8424C94.0995 64.4344 94.604 64.087 95.6123 63.8004C96.6447 63.4897 97.881 63.3353 99.3209 63.3372C102.681 63.3416 105.272 63.8009 107.095 64.7153C108.918 65.6297 109.828 66.9509 109.826 68.6789C109.824 70.1189 109.21 71.4261 107.985 72.6005C106.783 73.7749 105.018 74.7206 102.689 75.4376L103.013 75.474C105.029 75.5966 106.684 76.0908 107.979 76.9565C109.298 77.8222 109.957 78.8191 109.955 79.9471ZM106.586 68.8547C106.587 68.0627 106.18 67.4501 105.364 67.0171C104.573 66.56 103.601 66.3308 102.449 66.3293C101.321 66.3278 99.9409 66.47 98.3085 66.7559C98.9796 67.4767 99.3146 68.1732 99.3138 68.8452C99.3129 69.4932 98.8904 71.4726 98.046 74.7835C98.6225 74.4243 99.523 74.0175 100.748 73.5631C101.972 73.0847 102.933 72.6659 103.629 72.3068C104.35 71.9477 104.866 71.6364 105.178 71.3728C105.515 71.0853 105.827 70.7137 106.116 70.258C106.429 69.8025 106.585 69.3347 106.586 68.8547ZM106.824 79.799C106.824 79.079 105.985 78.4779 104.306 77.9957C102.651 77.4895 100.995 77.2354 99.3388 77.2332C98.6908 77.2324 98.1273 76.8956 97.6482 76.223C96.1766 82.0051 95.2125 85.1359 94.7559 85.6153C96.46 85.5695 98.2484 85.2718 100.121 84.7223C101.994 84.1487 103.579 83.4068 104.876 82.4964C106.173 81.5861 106.822 80.687 106.824 79.799Z" fill="#E5E5E5"/>
</svg>
